<?xml version="1.0" encoding="utf-8"?>
<svg viewBox="0 0 600 560" xmlns="http://www.w3.org/2000/svg" xmlns:xlink="http://www.w3.org/1999/xlink" xmlns:bx="https://boxy-svg.com">
  <defs>
    <symbol id="document" viewBox="0 0 100 141">
      <g transform="matrix(1, 0, 0, 1, 0, 0)">
        <g>
          <polygon style="stroke: rgb(136, 136, 136); fill: rgb(255, 255, 255);" points="0 0 100 0 100 121 90 111 70 141 0 141"/>
          <polygon style="stroke: rgb(136, 136, 136); fill: rgb(224, 224, 224);" points="100 121 70 141 90 111"/>
          <line style="stroke: rgb(136, 136, 136); stroke-width: 2; fill: rgb(255, 255, 255);" x1="10" y1="20" x2="90" y2="20"/>
          <line style="stroke: rgb(136, 136, 136); stroke-width: 2; fill: rgb(255, 255, 255);" x1="10" y1="40" x2="80" y2="40"/>
          <line style="stroke: rgb(136, 136, 136); stroke-width: 2; fill: rgb(255, 255, 255);" x1="10" y1="60" x2="90" y2="60"/>
          <line style="stroke: rgb(136, 136, 136); stroke-width: 2; fill: rgb(255, 255, 255);" x1="10" y1="80" x2="80" y2="80"/>
          <line style="stroke: rgb(136, 136, 136); stroke-width: 2; fill: rgb(255, 255, 255);" x1="10" y1="100" x2="70" y2="100"/>
          <line style="stroke: rgb(136, 136, 136); stroke-width: 2; fill: rgb(255, 255, 255);" x1="10" y1="120" x2="50" y2="120"/>
        </g>
      </g>
    </symbol>
    <symbol id="automation" viewBox="0 0 157.9764 109.2601">
      <path transform="matrix(0.66749107837677, -0.25428399443626404, -0.25428399443626404, -0.66749107837677, -77.55552625656128, 346.6594543457031)" d="M 284.82 262 L 295.18 262 L 297.468 277.014 A 28 28 0 0 1 303.801 279.638 L 316.036 270.639 L 323.361 277.964 L 314.362 290.199 A 28 28 0 0 1 316.986 296.532 L 332 298.82 L 332 309.18 L 316.986 311.468 A 28 28 0 0 1 314.362 317.801 L 323.361 330.036 L 316.036 337.361 L 303.801 328.362 A 28 28 0 0 1 297.468 330.986 L 295.18 346 L 284.82 346 L 282.532 330.986 A 28 28 0 0 1 276.199 328.362 L 263.964 337.361 L 256.639 330.036 L 265.638 317.801 A 28 28 0 0 1 263.014 311.468 L 248 309.18 L 248 298.82 L 263.014 296.532 A 28 28 0 0 1 265.638 290.199 L 256.639 277.964 L 263.964 270.639 L 276.199 279.638 A 28 28 0 0 1 282.532 277.014 Z M 290 290 A 14 14 0 0 0 290 318 A 14 14 0 0 0 290 290" style="fill: rgb(216, 216, 216);" bx:shape="cog 290 304 14 28 42 0.375 8 1@b555a3d7"/>
      <path transform="matrix(0.6588370203971863, 0.275939017534256, 0.275939017534256, -0.6588370203971863, -156.23238325119019, 190.26361083984372)" d="M 284.82 262 L 295.18 262 L 297.468 277.014 A 28 28 0 0 1 303.801 279.638 L 316.036 270.639 L 323.361 277.964 L 314.362 290.199 A 28 28 0 0 1 316.986 296.532 L 332 298.82 L 332 309.18 L 316.986 311.468 A 28 28 0 0 1 314.362 317.801 L 323.361 330.036 L 316.036 337.361 L 303.801 328.362 A 28 28 0 0 1 297.468 330.986 L 295.18 346 L 284.82 346 L 282.532 330.986 A 28 28 0 0 1 276.199 328.362 L 263.964 337.361 L 256.639 330.036 L 265.638 317.801 A 28 28 0 0 1 263.014 311.468 L 248 309.18 L 248 298.82 L 263.014 296.532 A 28 28 0 0 1 265.638 290.199 L 256.639 277.964 L 263.964 270.639 L 276.199 279.638 A 28 28 0 0 1 282.532 277.014 Z M 290 290 A 14 14 0 0 0 290 318 A 14 14 0 0 0 290 290" style="fill: rgb(216, 216, 216);" bx:shape="cog 290 304 14 28 42 0.375 8 1@b555a3d7"/>
      <path transform="matrix(0.7142859697341918, 0, 0, -0.7142859697341918, -128.42832136154175, 247.14294433593747)" d="M 284.82 262 L 295.18 262 L 297.468 277.014 A 28 28 0 0 1 303.801 279.638 L 316.036 270.639 L 323.361 277.964 L 314.362 290.199 A 28 28 0 0 1 316.986 296.532 L 332 298.82 L 332 309.18 L 316.986 311.468 A 28 28 0 0 1 314.362 317.801 L 323.361 330.036 L 316.036 337.361 L 303.801 328.362 A 28 28 0 0 1 297.468 330.986 L 295.18 346 L 284.82 346 L 282.532 330.986 A 28 28 0 0 1 276.199 328.362 L 263.964 337.361 L 256.639 330.036 L 265.638 317.801 A 28 28 0 0 1 263.014 311.468 L 248 309.18 L 248 298.82 L 263.014 296.532 A 28 28 0 0 1 265.638 290.199 L 256.639 277.964 L 263.964 270.639 L 276.199 279.638 A 28 28 0 0 1 282.532 277.014 Z M 290 290 A 14 14 0 0 0 290 318 A 14 14 0 0 0 290 290" style="fill: rgb(216, 216, 216);" bx:shape="cog 290 304 14 28 42 0.375 8 1@b555a3d7"/>
    </symbol>
    <symbol id="model" viewBox="0 0 100 141">
      <rect x="0" y="0" width="100" height="141" style="fill: rgb(255, 255, 255); stroke: rgb(221, 221, 221);" transform="matrix(1, 0, 0, 1, 0, 0)"/>
      <rect x="10" width="20" height="20" style="fill: rgb(216, 216, 216);" y="5" transform="matrix(1, 0, 0, 1, 0, 0)"/>
      <rect x="40" y="25" width="20" height="20" style="fill: rgb(216, 216, 216);" transform="matrix(1, 0, 0, 1, 0, 0)"/>
      <rect x="70" y="45" width="20" height="20" style="fill: rgb(216, 216, 216);" transform="matrix(1, 0, 0, 1, 0, 0)"/>
      <rect x="70" y="75" width="20" height="20" style="fill: rgb(216, 216, 216);" transform="matrix(1, 0, 0, 1, 0, 0)"/>
      <rect x="40" y="95" width="20" height="20" style="fill: rgb(216, 216, 216);" transform="matrix(1, 0, 0, 1, 0, 0)"/>
      <rect x="70" y="115" width="20" height="20" style="fill: rgb(216, 216, 216);" transform="matrix(1, 0, 0, 1, 0, 0)"/>
      <line style="fill: none; stroke: rgb(136, 136, 136);" x1="20" y1="25" x2="20" y2="105" transform="matrix(1, 0, 0, 1, 0, 0)"/>
      <line style="fill: none; stroke: rgb(136, 136, 136);" x1="20" y1="35" x2="40" y2="35" transform="matrix(1, 0, 0, 1, 0, 0)"/>
      <line style="fill: none; stroke: rgb(136, 136, 136);" x1="20" y1="105" x2="40" y2="105" transform="matrix(1, 0, 0, 1, 0, 0)"/>
      <line style="fill: none; stroke: rgb(136, 136, 136);" x1="50" y1="45" x2="50" y2="85" transform="matrix(1, 0, 0, 1, 0, 0)"/>
      <line style="fill: none; stroke: rgb(136, 136, 136);" x1="50" y1="55" x2="70" y2="55" transform="matrix(1, 0, 0, 1, 0, 0)"/>
      <line style="fill: none; stroke: rgb(136, 136, 136);" x1="50" y1="85" x2="70" y2="85" transform="matrix(1, 0, 0, 1, 0, 0)"/>
      <line style="fill: none; stroke: rgb(136, 136, 136);" x1="50" y1="125" x2="70" y2="125" transform="matrix(1, 0, 0, 1, 0, 0)"/>
      <line style="fill: none; stroke: rgb(136, 136, 136);" x1="50" y1="115" x2="50" y2="125" transform="matrix(1, 0, 0, 1, 0, 0)"/>
    </symbol>
    <symbol id="process1" viewBox="0 0 140 80">
      <polygon style="fill: rgb(216, 216, 216);" points="0 0 120 0 140 40 120 80 0 80" transform="matrix(1, 0, 0, 1, 0, 0)"/>
    </symbol>
    <symbol id="process2" viewBox="0 0 140 80">
      <polygon style="fill: rgb(216, 216, 216);" points="0 0 120 0 140 40 120 80 0 80 20 40" transform="matrix(1, 0, 0, 1, 0, 0)"/>
    </symbol>
    <symbol id="cloud" viewBox="0 0 140 100">
      <path d="M 115 40 C 115 40 115 40 115 40 C 129.188 42.794 140 55.134 140 70 C 140 86.569 126.569 100 110 100 L 30 100 C 13.431 100 0 86.569 0 70 C 0 60.577 4.344 52.169 11.139 46.669 C 10.401 44.583 10 42.339 10 40 C 10 28.954 18.954 20 30 20 C 33.302 20 36.416 20.8 39.161 22.217 C 45.707 9.049 59.297 0 75 0 C 97.091 0 115 17.909 115 40 Z" style="fill: rgb(216, 216, 216);"/>
    </symbol>
    <symbol id="database" viewBox="0 0 100 141">
      <ellipse style="fill: rgb(216, 216, 216);" cx="50" cy="121" rx="50" ry="20" transform="matrix(1, 0, 0, 1, 0, 0)"/>
      <rect x="0" y="20" width="100" height="101" style="fill: rgb(216, 216, 216);" transform="matrix(1, 0, 0, 1, 0, 0)"/>
      <ellipse style="fill: rgb(192, 192, 192);" cx="50" cy="20" rx="50" ry="20" transform="matrix(1, 0, 0, 1, 0, 0)"/>
    </symbol>
    <symbol id="server" viewBox="0 0 140 100">
      <g transform="matrix(1, 0, 0, 1, 0, 0)">
        <rect width="120" height="80" y="20" style="fill: rgb(238, 238, 238); stroke: rgb(208, 208, 208); stroke-linejoin: round;"/>
        <polygon style="fill: rgb(221, 221, 221); stroke: rgb(208, 208, 208); stroke-linejoin: round;" points="0 20 20 0 140 0 120 20"/>
        <polygon style="fill: rgb(221, 221, 221); stroke: rgb(208, 208, 208); stroke-linejoin: round;" points="140 0 140 80 120 100 120 20"/>
        <line style="stroke: rgb(208, 208, 208)" x1="0" y1="100" x2="20" y2="80"/>
        <line style="stroke: rgb(208, 208, 208)" x1="120" y1="80" x2="20" y2="80"/>
        <line style="stroke: rgb(208, 208, 208)" x1="20" y1="20" x2="20" y2="80"/>
      </g>
    </symbol>
    <symbol id="application" viewBox="0 0 140 100">
      <g transform="matrix(1, 0, 0, 1, 0, 0)">
        <polygon style="fill: rgb(221, 221, 221); stroke-linejoin: round; stroke: rgb(200, 200, 200); stroke-width: 1.594; vector-effect: non-scaling-stroke;" points="84 38 100 30 116 38 100 46"/>
        <polygon style="fill: rgb(216, 216, 216); stroke-linejoin: round; stroke: rgb(200, 200, 200); stroke-width: 1.594; vector-effect: non-scaling-stroke;" points="84 38 100 46 100 62 84 54"/>
        <polygon style="fill: rgb(216, 216, 216); stroke-linejoin: round; stroke: rgb(200, 200, 200); stroke-width: 1.594; vector-effect: non-scaling-stroke;" points="116 38 100 46 100 62 116 54"/>
      </g>
    </symbol>
    <symbol id="disks" viewBox="0 0 140 100">
      <g transform="matrix(1, 0, 0, 1, 0, 0)">
        <ellipse cx="100" cy="90" rx="16" ry="8" style="fill: rgb(204, 204, 204); stroke: rgb(187, 187, 187);"/>
        <ellipse cx="100" cy="86" rx="16" ry="8" style="fill: rgb(204, 204, 204); stroke: rgb(187, 187, 187);"/>
        <ellipse cx="100" cy="82" rx="16" ry="8" style="fill: rgb(204, 204, 204); stroke: rgb(187, 187, 187);"/>
        <ellipse cx="100" cy="78" rx="16" ry="8" style="fill: rgb(204, 204, 204); stroke: rgb(187, 187, 187);"/>
      </g>
    </symbol>
    <bx:grid x="-20" y="-20" width="10" height="10"/>
    <symbol id="cpu" viewBox="0 0 140 100">
      <g transform="matrix(1, 0, 0, 1, 0, 0)">
        <path d="M 36.667 40 L 63.333 40 C 66.667 40 70 43.333 70 46.667 L 70 73.333 C 70 76.667 67.015 80 63.333 80 L 36.667 80 C 33.333 80 30 76.667 30 73.333 L 30 46.667 C 30 46.667 30 46.667 30 46.667 C 30 43.333 33.333 40 36.667 40 Z" style="fill: rgb(208, 208, 208);"/>
        <path d="M 40 45 L 60 45 C 62.5 45 65 47.5 65 50 L 65 70 C 65 72.5 62.761 75 60 75 L 40 75 C 37.5 75 35 72.5 35 70 L 35 50 C 35 50 35 50 35 50 C 35 47.5 37.5 45 40 45 Z" style="fill: none; stroke-width: 2; stroke: rgb(170, 170, 170);"/>
        <line x1="72" y1="50" x2="80" y2="50" style="stroke: rgb(208, 208, 208); stroke-width: 2; stroke-linecap: round;"/>
        <line x1="72" y1="60" x2="80" y2="60" style="stroke: rgb(208, 208, 208); stroke-width: 2; stroke-linecap: round;"/>
        <line x1="72" y1="70" x2="80" y2="70" style="stroke: rgb(208, 208, 208); stroke-width: 2; stroke-linecap: round;"/>
        <line x1="20" y1="50" x2="28" y2="50" style="stroke: rgb(208, 208, 208); stroke-width: 2; stroke-linecap: round;"/>
        <line x1="20" y1="60" x2="28" y2="60" style="stroke: rgb(208, 208, 208); stroke-width: 2; stroke-linecap: round;"/>
        <line x1="20" y1="70" x2="28" y2="70" style="stroke: rgb(208, 208, 208); stroke-width: 2; stroke-linecap: round;"/>
        <line x1="40" y1="30" x2="40" y2="38" style="stroke: rgb(208, 208, 208); stroke-width: 2; stroke-linecap: round;"/>
        <line x1="50" y1="30" x2="50" y2="38" style="stroke: rgb(208, 208, 208); stroke-width: 2; stroke-linecap: round;"/>
        <line x1="60" y1="30" x2="60" y2="38" style="stroke: rgb(208, 208, 208); stroke-width: 2; stroke-linecap: round;"/>
        <line x1="40" y1="82" x2="40" y2="90" style="stroke: rgb(208, 208, 208); stroke-width: 2; stroke-linecap: round;"/>
        <line x1="50" y1="82" x2="50" y2="90" style="stroke: rgb(208, 208, 208); stroke-width: 2; stroke-linecap: round;"/>
        <line x1="60" y1="82" x2="60" y2="90" style="stroke: rgb(208, 208, 208); stroke-width: 2; stroke-linecap: round;"/>
      </g>
    </symbol>
  </defs>
  <use width="140" height="80" transform="matrix(1.428572, 0, 0, 1, 199.999969, 250)" xlink:href="#process2"/>
  <text transform="matrix(1, 0, 0, 1.000001, 21.218908, 119.999794)" style="fill: rgb(51, 51, 51); font-size: 14px; text-anchor: middle; white-space: pre;" x="140.006" y="197.015">STDIN</text>
  <use width="100" height="141" transform="matrix(1, 0, 0, 1, 250, 380.000061)" xlink:href="#document"/>
  <use width="100" height="141" transform="matrix(1, 0, 0, 1, 249.999985, 40.000008)" style="stroke-dashoffset: 1; stroke: rgb(221, 221, 221);" xlink:href="#model"/>
  <use width="100" height="141" transform="matrix(1, 0, 0, 1, 480, 219)" xlink:href="#document"/>
  <text x="273" y="28" style="fill: rgb(51, 51, 51); font-family: sans-serif; font-size: 20px; white-space: pre;"><tspan style="font-size: 20px; word-spacing: 0px;">Model</tspan></text>
  <text x="499" y="199" style="fill: rgb(51, 51, 51); font-family: sans-serif; font-size: 20px; white-space: pre;">Artifact</text>
  <use width="100" height="141" transform="matrix(1, 0, 0, 1, 19.999998, 219)" xlink:href="#document"/>
  <polygon style="fill: rgb(0, 0, 255); stroke: rgb(0, 0, 255);" points="205 295 215 285 225 295" transform="matrix(0, 1, -1, 0, 505.000002, 74.999987)"/>
  <line style="stroke-width: 2; stroke-linecap: round; fill: rgb(0, 0, 255); stroke: rgb(0, 0, 255);" x1="170" y1="330" x2="170" y2="250" transform="matrix(0, 1, -1, 0, 459.999995, 119.999993)"/>
  <line style="stroke-width: 2; stroke: rgb(208, 208, 208); stroke-linecap: round;" x1="65.041" y1="296.407" x2="65.041" y2="296.407"/>
  <g transform="matrix(1, 0, 0, 1, 150, 46.95314)">
    <polygon style="fill: rgb(0, 0, 255); stroke: rgb(0, 0, 255);" points="140 300 150 290 160 300"/>
    <line style="stroke-width: 2; stroke-linecap: round; fill: rgb(0, 0, 255); stroke: rgb(0, 0, 255);" x1="150" y1="320" x2="150" y2="300"/>
  </g>
  <text x="259" y="547" style="fill: rgb(51, 51, 51); font-family: sans-serif; font-size: 20px; white-space: pre;">Template</text>
  <text x="24" y="199" style="fill: rgb(51, 51, 51); font-family: sans-serif; font-size: 20px; white-space: pre;">Descriptor</text>
  <text x="120.005" y="315.671" style="fill: rgb(0, 0, 255); font-family: sans-serif; font-size: 20px; white-space: pre;" transform="matrix(0.999999, 0, 0, 1, 154.000275, 47.422443)">-t</text>
  <path style="fill: rgb(216, 216, 216); stroke: rgb(0, 0, 0);" d="M 408.144 76.5"/>
  <text style="fill: rgb(51, 51, 51); font-size: 18px; text-anchor: middle; white-space: pre;" x="300" y="296">GENERATOR</text>
  <text style="fill: rgb(51, 51, 51); font-size: 14px; text-anchor: middle; white-space: pre;" x="439" y="317">STDOUT</text>
  <line style="stroke-width: 2; stroke-linecap: round; fill: rgb(0, 0, 255); stroke: rgb(0, 0, 255);" x1="434" y1="316" x2="434" y2="264" transform="matrix(0, 1, -1, 0, 723.999997, -144.00002)"/>
  <polygon style="fill: rgb(0, 0, 255); stroke: rgb(0, 0, 255);" points="455 295 465 285 475 295" transform="matrix(0, 1, -1, 0, 755.000028, -175.000051)"/>
  <path d="M 300 190 C 326 190 348 210 350 235 L 340 240 L 330 235 C 327 221 315 210 300 210 C 284 210 270 223 270 240 L 250 240 C 250 212 272 190 300 190 Z" style="fill: rgb(216, 216, 216);"/>
  <rect x="250" y="40" width="100" height="141" style="fill: none; stroke: rgb(221, 221, 221); stroke-width: 2;"/>
</svg>