<?xml version="1.0" encoding="utf-8"?>
<svg viewBox="0 0 640 400" xmlns="http://www.w3.org/2000/svg" xmlns:bx="https://boxy-svg.com">
  <defs>
    <bx:grid x="0" y="0" width="10" height="10"/>
  </defs>
  <rect x="20" y="20" width="100" height="30" style="fill: rgb(216, 216, 216);"/>
  <text x="52.332" y="39.239" style="fill: rgb(51, 51, 51); font-family: sans-serif; font-size: 12px; white-space: pre;">GitLab</text>
  <rect x="20" y="90" width="100" height="140" style="fill: rgb(216, 216, 216);"/>
  <text x="32.59" y="109.231" style="fill: rgb(51, 51, 51); font-family: sans-serif; font-size: 12px; white-space: pre;">Ansible Tower</text>
  <rect x="520" y="20" width="100" height="30" style="fill: none; stroke: rgb(216, 216, 216);"/>
  <text x="181.676" y="108.442" style="fill: rgb(51, 51, 51); font-family: sans-serif; font-size: 10px; white-space: pre;">Organization</text>
  <rect x="160" y="90" width="100" height="30" style="fill: none; stroke: rgb(216, 216, 216);"/>
  <rect x="280" y="90" width="100" height="30" style="fill: none; stroke: rgb(216, 216, 216);"/>
  <text x="165.996" y="69.223" transform="matrix(1, 0, 0, 1.000001, 263.461121, 39.218674)" style="fill: rgb(51, 51, 51); font-family: sans-serif; font-size: 9.99999px; white-space: pre;">Inventory</text>
  <rect x="400" y="90" width="100" height="30" style="fill: none; stroke: rgb(216, 216, 216);"/>
  <rect x="400" y="20" width="100" height="30" style="fill: none; stroke: rgb(216, 216, 216);"/>
  <text x="165.996" y="69.223" transform="matrix(1, 0, 0, 1.000001, 240.953217, -30.781319)" style="fill: rgb(51, 51, 51); font-family: sans-serif; font-size: 9.99999px; white-space: pre;">Tools/environments</text>
  <text x="165.996" y="69.223" transform="matrix(1, 0, 0, 1.000001, 126.226646, -30.781319)" style="fill: rgb(51, 51, 51); font-family: sans-serif; font-size: 9.99999px; white-space: pre;">Tools/automation</text>
  <rect x="280" y="20" width="100" height="30" style="fill: none; stroke: rgb(216, 216, 216);"/>
  <text x="165.996" y="69.223" transform="matrix(1, 0, 0, 1.000001, 148.461151, 39.218681)" style="fill: rgb(51, 51, 51); font-family: sans-serif; font-size: 9.99999px; white-space: pre;">Project</text>
  <text x="165.996" y="69.223" transform="matrix(1, 0, 0, 1.000001, 362.914154, -30.781322)" style="fill: rgb(51, 51, 51); font-family: sans-serif; font-size: 9.99999px; white-space: pre;">Applications/[VNF]</text>
  <rect x="280" y="160" width="100" height="30" style="fill: none; stroke: rgb(216, 216, 216);"/>
  <text x="165.996" y="69.223" transform="matrix(1, 0, 0, 1.000001, 134.289261, 109.218674)" style="fill: rgb(51, 51, 51); font-family: sans-serif; font-size: 9.99999px; white-space: pre;">Job Template</text>
  <line x1="330" y1="120" x2="330" y2="150" style="stroke: rgb(216, 216, 216);"/>
  <path d="M 330 -160 L 340 -150 L 320 -150 L 330 -160 Z" style="fill: rgb(216, 216, 216);" transform="matrix(1, 0, 0, -1, 0, 0)" bx:shape="triangle 320 -160 20 10 0.5 0 1@12b39365"/>
  <line x1="210" y1="120" x2="210" y2="140" style="stroke: rgb(216, 216, 216);"/>
  <line x1="210" y1="140" x2="450" y2="140" style="stroke: rgb(216, 216, 216);"/>
  <line x1="450" y1="120" x2="450" y2="140" style="stroke: rgb(216, 216, 216);"/>
  <line x1="330" y1="50" x2="330" y2="80" style="stroke: rgb(216, 216, 216);"/>
  <path d="M 330 -90 L 340 -80 L 320 -80 L 330 -90 Z" style="fill: rgb(216, 216, 216);" transform="matrix(1, 0, 0, -1, 0, 0)" bx:shape="triangle 320 -90 20 10 0.5 0 1@f2a1ddaf"/>
  <path d="M 450 -90 L 460 -80 L 440 -80 L 450 -90 Z" style="fill: rgb(216, 216, 216);" transform="matrix(1, 0, 0, -1, 0, 0)" bx:shape="triangle 440 -90 20 10 0.5 0 1@04e42118"/>
  <line x1="450" y1="50" x2="450" y2="80" style="stroke: rgb(216, 216, 216);"/>
  <line x1="330" y1="190" x2="330" y2="220" style="stroke: rgb(216, 216, 216);"/>
  <path d="M 330.328 -230 L 340.328 -220 L 320.328 -220 L 330.328 -230 Z" style="fill: rgb(216, 216, 216);" transform="matrix(1, 0, 0, -1, 0, 0)" bx:shape="triangle 320.328 -230 20 10 0.5 0 1@dd14b67a"/>
  <rect x="280" y="230" width="100" height="30" style="fill: none; stroke: rgb(216, 216, 216);"/>
  <rect x="160" y="195" width="100" height="30" style="fill: none; stroke: rgb(216, 216, 216);"/>
  <text x="165.996" y="69.223" transform="matrix(1, 0, 0, 1.000001, 155.961136, 179.218674)" style="fill: rgb(51, 51, 51); font-family: sans-serif; font-size: 9.99999px; white-space: pre;">Job</text>
  <line x1="260" y1="210" x2="330" y2="210" style="stroke: rgb(216, 216, 216);"/>
  <text x="165.996" y="69.223" transform="matrix(1, 0, 0, 1.000001, 21.054871, 144.218674)" style="fill: rgb(51, 51, 51); font-family: sans-serif; font-size: 9.99999px; white-space: pre;">Extra Vars</text>
  <line x1="330" y1="260" x2="330" y2="290" style="stroke: rgb(216, 216, 216);"/>
  <path d="M 330 -300 L 340 -290 L 320 -290 L 330 -300 Z" style="fill: rgb(216, 216, 216);" transform="matrix(1, 0, 0, -1, 0, 0)" bx:shape="triangle 320 -300 20 10 0.5 0 1@3cc1ca5f"/>
  <line x1="330" y1="270" x2="570" y2="270" style="stroke: rgb(216, 216, 216);"/>
  <line x1="570" y1="50" x2="570" y2="270" style="stroke: rgb(216, 216, 216);"/>
  <rect x="20" y="230" width="100" height="30" style="fill: rgb(216, 216, 216);"/>
  <line x1="20" y1="230" x2="120" y2="230" style="stroke: rgb(192, 192, 192);"/>
  <text x="50.262" y="249.168" style="fill: rgb(51, 51, 51); font-family: sans-serif; font-size: 12px; white-space: pre;">Runner</text>
  <rect x="20" y="300" width="100" height="80" style="fill: rgb(216, 216, 216);"/>
  <text x="44.012" y="344.168" style="fill: rgb(51, 51, 51); font-family: sans-serif; font-size: 12px; white-space: pre;">VIM /VNF</text>
  <title id="title6144">bulle</title>
  <path id="path6057" style="stroke-linejoin: round; stroke-linecap: round; stroke-width: 2; fill: rgb(255, 255, 255); stroke: rgb(216, 216, 216);" d="M 320.158 303.273 C 327.589 303.273 334.185 306.807 338.381 312.276 C 341.147 309.431 344.829 307.697 348.859 307.697 C 355.263 307.697 360.742 312.061 363.135 318.318 C 372.545 318.926 380 326.762 380 336.348 C 380 343.414 375.96 349.519 370.064 352.493 C 370.126 353.129 370.169 353.769 370.169 354.425 C 370.169 364.652 362.455 372.95 352.949 372.95 C 349.833 372.95 346.913 372.037 344.392 370.479 C 340.561 376.226 334.068 380 326.712 380 C 317.492 380 309.644 374.048 306.676 365.742 C 304.726 366.417 302.65 366.774 300.497 366.774 C 289.18 366.774 280 356.693 280 344.275 L 280 344.095 C 280.084 332.828 287.712 323.558 297.596 322.023 C 299.564 311.347 308.919 303.274 320.158 303.274 Z"/>
  <text x="165.996" y="69.223" transform="matrix(1, 0, 0, 1.000001, 131.78125, 275.855194)" style="fill: rgb(51, 51, 51); font-family: sans-serif; font-size: 9.99999px; white-space: pre;">Cloud / Tenant</text>
  <line x1="10" y1="70" x2="630" y2="70" style="stroke: rgb(192, 192, 192); stroke-linecap: round; stroke-dasharray: 2px;"/>
  <line x1="10" y1="280" x2="630" y2="280" style="stroke: rgb(192, 192, 192); stroke-linecap: round; stroke-dasharray: 2px;"/>
  <text x="165.996" y="69.223" transform="matrix(1, 0, 0, 1.000001, 114.015671, -51.031315)" style="fill: rgb(255, 0, 0); font-family: sans-serif; font-size: 7.99999px; font-weight: bold; text-transform: uppercase; white-space: pre;">REPOSITORY</text>
  <text x="165.996" y="69.223" transform="matrix(1, 0, 0, 1.000001, 234.015686, -51.031311)" style="fill: rgb(255, 0, 0); font-family: sans-serif; font-size: 7.99999px; font-weight: bold; text-transform: uppercase; white-space: pre;">REPOSITORY</text>
  <text x="165.996" y="69.223" transform="matrix(1, 0, 0, 1.000001, 354.015625, -51.031311)" style="fill: rgb(255, 0, 0); font-family: sans-serif; font-size: 7.99999px; font-weight: bold; text-transform: uppercase; white-space: pre;">REPOSITORY</text>
  <text x="165.996" y="69.223" transform="matrix(1, 0, 0, 1.000001, 232.01564, 18.968672)" style="fill: rgb(255, 0, 0); font-family: sans-serif; font-size: 7.99999px; font-weight: bold; text-transform: uppercase; white-space: pre;">ENtity</text>
  <text x="165.996" y="69.223" transform="matrix(1, 0, 0, 1.000001, 114.015625, 18.015528)" style="fill: rgb(255, 0, 0); font-family: sans-serif; font-size: 7.99999px; font-weight: bold; text-transform: uppercase; white-space: pre;">ENtity</text>
  <text x="165.996" y="69.223" transform="matrix(1, 0, 0, 1.000001, -4.421857, 18.96867)" style="fill: rgb(255, 0, 0); font-family: sans-serif; font-size: 7.99999px; font-weight: bold; text-transform: uppercase; white-space: pre;">ENtity</text>
  <text x="165.996" y="69.223" transform="matrix(1, 0, 0, 1.000001, 114.015671, 88.015518)" style="fill: rgb(255, 0, 0); font-family: sans-serif; font-size: 7.99999px; font-weight: bold; text-transform: uppercase; white-space: pre;">ENtity</text>
  <text x="165.996" y="69.223" transform="matrix(1, 0, 0, 1.000001, -4.421855, 123.968697)" style="fill: rgb(255, 0, 0); font-family: sans-serif; font-size: 7.99999px; font-weight: bold; text-transform: uppercase; white-space: pre;">ENtity</text>
  <text x="165.996" y="69.223" transform="matrix(1, 0, 0, 1.000001, 114.015633, 158.968658)" style="fill: rgb(255, 0, 0); font-family: sans-serif; font-size: 7.99999px; font-weight: bold; text-transform: uppercase; white-space: pre;">ENtity</text>
</svg>