<?xml version="1.0" encoding="utf-8"?>
<svg viewBox="0 0 680 440" xmlns="http://www.w3.org/2000/svg" xmlns:bx="https://boxy-svg.com">
  <defs>
    <bx:grid x="0" y="0" width="5" height="5"/>
  </defs>
  <polygon style="fill: rgb(216, 216, 216); stroke: rgb(170, 170, 170);" points="20 10 210 10 230 30 210 50 20 50 40 30"/>
  <polygon style="fill: rgb(216, 216, 216); stroke: rgb(170, 170, 170);" points="20 30 210 30 230 50 210 70 20 70 40 50"/>
  <polygon style="fill: rgb(216, 216, 216); stroke: rgb(170, 170, 170);" points="40 20 230 20 250 40 230 60 40 60 60 40"/>
  <polygon style="fill: rgb(216, 216, 216); stroke: rgb(170, 170, 170);" points="230 10 430 10 460 40 430 70 230 70 260 40"/>
  <polygon style="fill: rgb(216, 216, 216); stroke: rgb(170, 170, 170);" points="440 10 640 10 670 40 640 70 440 70 470 40"/>
  <text x="125" y="48" style="fill: rgb(51, 51, 51); font-family: sans-serif; font-size: 24px; text-anchor: middle; white-space: pre;">Build</text>
  <text x="345" y="48" style="fill: rgb(51, 51, 51); font-family: sans-serif; font-size: 24px; text-anchor: middle; white-space: pre;">Transfer</text>
  <text x="512" y="48" style="fill: rgb(51, 51, 51); font-family: sans-serif; font-size: 24px; white-space: pre;">Operate</text>
  <rect x="20" y="80" width="200" height="30" style="fill: rgb(216, 216, 216);"/>
  <text x="65" y="100" style="fill: rgb(51, 51, 51); font-family: sans-serif; font-size: 16px; white-space: pre;">VNF Descriptor</text>
  <rect x="440" y="80" width="200" height="30" style="fill: rgb(226, 0, 116);"/>
  <text x="565" y="94" style="white-space: pre; fill: rgb(51, 51, 51); font-family: sans-serif; font-size: 24px;"> </text>
  <rect x="60" y="280" width="160" height="30" style="fill: rgb(216, 216, 216);"/>
  <text x="114" y="300" style="fill: rgb(51, 51, 51); font-family: sans-serif; font-size: 16px; white-space: pre;">Images</text>
  <rect x="60" y="320" width="160" height="30" style="fill: rgb(216, 216, 216);"/>
  <text x="105" y="340" style="fill: rgb(51, 51, 51); font-family: sans-serif; font-size: 16px; white-space: pre;">Packages</text>
  <rect x="60" y="360" width="160" height="30" style="fill: rgb(216, 216, 216);"/>
  <text x="116" y="380" style="fill: rgb(51, 51, 51); font-family: sans-serif; font-size: 16px; white-space: pre;">Scripts</text>
  <text x="503" y="100" style="fill: rgb(255, 255, 255); font-family: sans-serif; font-size: 16px; white-space: pre;">Processes</text>
  <rect x="480" y="120" width="160" height="30" style="fill: rgb(0, 192, 0);"/>
  <rect x="480" y="200" width="160" height="30" style="fill: rgb(216, 216, 216);"/>
  <rect x="480" y="160" width="160" height="30" style="fill: rgb(0, 192, 0);"/>
  <text x="501" y="181" style="fill: rgb(51, 51, 51); font-family: sans-serif; font-size: 16px; white-space: pre;">Env. Parameters</text>
  <text x="500" y="221" style="fill: rgb(51, 51, 51); font-family: sans-serif; font-size: 16px; white-space: pre;">VNF Parameters</text>
  <rect x="230" y="120" width="200" height="30" style="fill: rgb(216, 216, 216);"/>
  <text x="410" y="197" style="fill: rgb(51, 51, 51); font-family: sans-serif; font-size: 16px; white-space: pre;" transform="matrix(1, 0, 0, 0.999999, -121.781265, -56.523251)">Meta Model</text>
  <rect x="230" y="160" width="200" height="30" style="fill: rgb(226, 0, 116);"/>
  <rect x="230" y="200" width="200" height="30" style="fill: rgb(216, 216, 216);"/>
  <text x="410" y="197" style="fill: rgb(51, 51, 51); font-family: sans-serif; font-size: 16px; white-space: pre;" transform="matrix(1, 0, 0, 0.999999, -139.554718, 23.476767)">VNF Parameters</text>
  <rect x="480" y="240" width="160" height="30" style="fill: rgb(0, 192, 0);"/>
  <rect x="480" y="280" width="160" height="30" style="fill: rgb(216, 216, 216);"/>
  <text x="534" y="301" style="fill: rgb(51, 51, 51); font-family: sans-serif; font-size: 16px; white-space: pre;">Images</text>
  <rect x="480" y="320" width="160" height="30" style="fill: rgb(216, 216, 216);"/>
  <text x="525" y="341" style="fill: rgb(51, 51, 51); font-family: sans-serif; font-size: 16px; white-space: pre;">Packages</text>
  <rect x="480" y="360" width="160" height="30" style="fill: rgb(216, 216, 216);"/>
  <text x="536" y="381" style="fill: rgb(51, 51, 51); font-family: sans-serif; font-size: 16px; white-space: pre;">Scripts</text>
  <text x="494" y="261" style="fill: rgb(51, 51, 51); font-family: sans-serif; font-size: 16px; white-space: pre;">VNF Configuration</text>
  <text x="410" y="197" transform="matrix(1, 0, 0, 0.999999, -116.45314, -16.52323)" style="fill: rgb(255, 255, 255); font-family: sans-serif; font-size: 16px; white-space: pre;">Templates</text>
  <rect x="60" y="400" width="160" height="30" style="fill: rgb(216, 216, 216);"/>
  <text x="108" y="420" style="fill: rgb(51, 51, 51); font-family: sans-serif; font-size: 16px; white-space: pre;">Licenses</text>
  <text x="488" y="141" style="fill: rgb(51, 51, 51); font-family: sans-serif; font-size: 16px; white-space: pre;">Process Parameters</text>
  <rect x="480" y="400" width="160" height="30" style="fill: rgb(216, 216, 216);"/>
  <text x="528" y="421" style="fill: rgb(51, 51, 51); font-family: sans-serif; font-size: 16px; white-space: pre;">Licences</text>
  <line style="stroke: rgb(0, 0, 0);" x1="40" y1="110" x2="40" y2="415"/>
  <line style="stroke: rgb(0, 0, 0);" x1="40" y1="295" x2="60" y2="295"/>
  <line style="stroke: rgb(0, 0, 0);" x1="40" y1="335" x2="60" y2="335"/>
  <line style="stroke: rgb(0, 0, 0);" x1="40" y1="375" x2="60" y2="375"/>
  <line style="stroke: rgb(0, 0, 0);" x1="40" y1="415" x2="60" y2="415"/>
  <line style="stroke: rgb(0, 0, 0);" x1="220" y1="95" x2="330" y2="95"/>
  <line style="stroke-width: 3; stroke: rgb(255, 136, 136);" x1="330" y1="95" x2="330" y2="120"/>
  <line style="stroke-width: 3; stroke: rgb(255, 136, 136);" x1="330" y1="150" x2="330" y2="160"/>
  <line style="stroke-width: 3; stroke: rgb(255, 136, 136);" x1="330" y1="190" x2="330" y2="200"/>
  <line style="stroke: rgb(0, 0, 0);" x1="460" y1="110" x2="460" y2="415"/>
  <line style="stroke: rgb(0, 0, 0);" x1="460" y1="295" x2="480" y2="295"/>
  <line style="stroke: rgb(0, 0, 0);" x1="460" y1="335" x2="480" y2="335"/>
  <line style="stroke: rgb(0, 0, 0);" x1="460" y1="375" x2="480" y2="375"/>
  <line style="stroke: rgb(0, 0, 0);" x1="460" y1="415" x2="480" y2="415"/>
  <line style="stroke: rgb(0, 0, 0);" x1="460" y1="135" x2="480" y2="135"/>
  <line style="stroke: rgb(0, 0, 0);" x1="460" y1="175" x2="480" y2="175"/>
  <line style="stroke: rgb(0, 0, 0);" x1="460" y1="215" x2="480" y2="215"/>
  <line style="stroke: rgb(0, 0, 0);" x1="460" y1="255" x2="480" y2="255"/>
  <line x1="220" y1="300" x2="480" y2="300" style="stroke: rgb(255, 136, 136); stroke-width: 3;"/>
  <line x1="220" y1="340" x2="480" y2="340" style="stroke: rgb(255, 136, 136); stroke-width: 3;"/>
  <line x1="220" y1="380" x2="480" y2="380" style="stroke: rgb(255, 136, 136); stroke-width: 3;"/>
  <line x1="220" y1="420" x2="480" y2="420" style="stroke: rgb(255, 136, 136); stroke-width: 3;"/>
  <line x1="220" y1="95" x2="330" y2="95" style="stroke: rgb(255, 136, 136); stroke-width: 3;"/>
  <line x1="430" y1="220" x2="480" y2="220" style="stroke: rgb(255, 136, 136); stroke-width: 3;"/>
</svg>